<?xml version="1.0" standalone="no"?>
<!DOCTYPE svg PUBLIC "-//W3C//DTD SVG 20010904//EN"
 "http://www.w3.org/TR/2001/REC-SVG-20010904/DTD/svg10.dtd">
<svg version="1.0" xmlns="http://www.w3.org/2000/svg"
 width="820.000000pt" height="820.000000pt" viewBox="0 0 820.000000 820.000000"
 preserveAspectRatio="xMidYMid meet">
<metadata>
Created by potrace 1.16, written by Peter Selinger 2001-2019
</metadata>
<g transform="translate(0.000000,820.000000) scale(0.100000,-0.100000)"
fill="#FE6B8B" stroke="none">
<path d="M2355 7523 c-87 -31 -144 -71 -189 -132 -107 -146 -101 -344 14 -483
59 -71 182 -128 276 -128 87 0 92 -6 231 -270 31 -58 59 -109 63 -115 4 -5 31
-55 60 -110 29 -55 64 -120 78 -145 94 -171 184 -341 181 -343 -2 -2 -35 -23
-74 -47 -184 -116 -384 -300 -514 -472 l-73 -98 -27 20 c-14 11 -120 94 -236
185 -115 91 -264 208 -330 260 -209 163 -196 148 -205 241 -10 97 -34 148 -92
198 -100 86 -251 84 -352 -4 -117 -103 -121 -281 -8 -395 72 -72 169 -93 278
-58 66 20 71 18 194 -79 52 -40 173 -136 271 -213 98 -77 223 -176 279 -219
56 -43 105 -89 110 -102 7 -17 -2 -45 -35 -121 -32 -70 -63 -173 -111 -365
l-67 -268 -582 0 -582 0 -72 80 c-55 61 -87 87 -139 112 -61 30 -74 33 -162
33 -83 0 -103 -4 -157 -29 -79 -36 -154 -114 -194 -201 -24 -54 -29 -77 -29
-145 0 -71 4 -90 33 -153 66 -142 177 -219 324 -225 151 -7 254 43 334 163 26
38 55 75 65 82 15 11 123 13 591 11 314 -2 573 -5 576 -8 11 -12 79 -442 71
-450 -11 -10 -718 -280 -734 -280 -6 0 -40 14 -75 31 -81 39 -155 47 -222 25
-111 -37 -183 -139 -183 -259 0 -185 184 -314 361 -252 89 32 137 86 165 187
17 60 50 102 88 114 11 3 167 62 345 130 178 68 327 124 331 124 3 0 28 -44
55 -98 124 -252 328 -504 542 -669 42 -32 87 -68 102 -80 l26 -21 -177 -178
-177 -179 -94 -6 c-188 -12 -287 -104 -287 -266 0 -83 16 -128 67 -184 47 -52
103 -80 172 -86 104 -10 207 40 262 124 30 47 31 49 25 144 -6 92 -5 99 22
148 16 31 87 112 180 206 176 179 173 178 297 124 39 -16 162 -57 275 -90 112
-33 208 -63 212 -67 4 -4 3 -48 -2 -97 -6 -50 -15 -133 -20 -185 -21 -197 -40
-380 -57 -523 -18 -164 -10 -148 -110 -218 -109 -75 -151 -223 -96 -332 23
-45 83 -107 126 -129 147 -74 336 10 381 170 29 104 7 182 -74 268 -60 64 -59
45 -25 357 14 128 37 330 50 451 13 120 27 221 30 224 3 3 25 5 48 4 73 -5
303 17 409 38 57 11 158 37 226 57 67 19 125 33 129 30 6 -6 67 -267 148 -634
25 -111 42 -210 38 -220 -3 -10 -16 -31 -28 -48 -37 -50 -65 -113 -71 -158
-14 -97 47 -207 144 -265 41 -23 58 -27 127 -27 69 0 87 4 125 27 118 69 168
192 131 321 -19 65 -78 129 -162 173 -76 40 -69 28 -108 194 -80 346 -151 676
-151 704 0 32 6 38 190 160 104 69 192 126 194 126 4 0 98 -129 186 -257 l64
-92 0 -93 c2 -110 17 -153 72 -194 33 -26 45 -29 110 -29 81 0 104 11 158 79
25 30 31 48 34 100 7 114 -55 187 -178 207 -35 5 -70 14 -77 18 -18 10 -263
352 -263 366 0 6 16 29 36 51 128 142 266 356 345 536 27 62 53 120 58 127 17
32 63 31 270 -5 114 -19 379 -64 591 -99 212 -36 395 -69 406 -74 13 -6 38
-43 62 -94 75 -154 191 -245 362 -283 184 -42 405 52 510 216 18 28 45 83 61
123 50 126 37 242 -43 405 -91 182 -351 292 -561 237 -97 -25 -157 -62 -242
-149 -44 -45 -89 -85 -98 -89 -18 -7 -116 9 -851 133 -197 33 -361 60 -365 60
-3 0 -6 116 -6 257 0 233 -2 269 -24 373 -41 200 -93 349 -189 539 -44 87 -46
94 -29 105 10 6 105 67 210 135 368 239 550 351 569 351 11 0 42 -7 69 -16
174 -57 349 71 349 256 0 154 -118 270 -274 270 -132 0 -253 -117 -263 -254
-8 -103 28 -71 -378 -334 -308 -201 -409 -262 -415 -255 -3 4 -41 49 -82 98
-113 135 -262 268 -420 373 -38 25 -68 49 -68 53 0 8 341 554 475 760 65 100
95 129 130 129 44 0 124 31 170 66 64 49 95 116 95 205 0 79 -17 125 -67 180
-55 60 -118 89 -198 89 -108 0 -188 -47 -240 -142 -39 -70 -41 -156 -6 -239
29 -69 25 -84 -47 -191 -45 -67 -116 -180 -370 -583 -52 -82 -100 -155 -106
-162 -8 -8 -87 10 -320 73 -170 46 -311 86 -313 88 -2 2 21 149 51 327 49 281
59 326 77 339 52 37 102 86 116 114 22 42 19 126 -7 176 -75 147 -315 123
-359 -37 -20 -73 -9 -117 51 -203 l38 -55 -53 -317 c-30 -175 -57 -321 -60
-324 -5 -5 -743 -143 -768 -144 -6 0 -216 381 -433 785 -49 91 -86 172 -86
188 0 15 12 56 27 90 22 52 27 77 27 157 1 83 -2 102 -26 153 -38 80 -115 158
-190 192 -81 36 -200 44 -273 18z m2725 -2442 c77 -29 134 -82 171 -157 121
-245 -105 -515 -366 -439 -145 42 -225 150 -225 303 0 143 76 251 209 298 54
20 153 17 211 -5z m-1560 -317 c78 -23 162 -109 185 -189 41 -139 -20 -276
-152 -346 -46 -24 -67 -29 -127 -29 -83 0 -134 20 -195 75 -93 84 -121 228
-67 339 66 135 207 194 356 150z m765 -803 c145 -83 139 -293 -9 -370 -160
-83 -346 58 -307 233 32 142 189 210 316 137z"/>
</g>
</svg>
